<?xml version="1.0" standalone="no"?>
<!DOCTYPE svg PUBLIC "-//W3C//DTD SVG 20010904//EN"
 "http://www.w3.org/TR/2001/REC-SVG-20010904/DTD/svg10.dtd">
<svg version="1.0" xmlns="http://www.w3.org/2000/svg"
 width="694.000000pt" height="694.000000pt" viewBox="0 0 694.000000 694.000000"
 preserveAspectRatio="xMidYMid meet">
<metadata>
Created by potrace 1.11, written by Peter Selinger 2001-2013
</metadata>
<g transform="translate(0.000000,694.000000) scale(0.100000,-0.100000)"
fill="#000000" stroke="none">
<path d="M5705 6859 c-27 -12 -63 -28 -80 -37 -16 -9 -32 -16 -35 -15 -3 0
-16 -3 -29 -8 -40 -16 -175 -70 -206 -84 -16 -8 -56 -23 -88 -35 -47 -18 -174
-102 -197 -130 -3 -3 -23 -19 -45 -36 -22 -16 -45 -33 -51 -39 -6 -5 -25 -21
-43 -35 -34 -26 -100 -79 -136 -108 -83 -68 -95 -74 -118 -58 -89 62 -125 87
-222 154 -60 41 -144 99 -185 128 -48 33 -90 54 -115 58 -22 3 -51 8 -65 11
-14 2 -45 7 -70 10 -25 3 -67 10 -95 15 -27 5 -68 12 -90 15 -39 5 -74 10
-125 20 -14 3 -45 7 -69 10 -24 3 -47 7 -50 9 -3 2 -30 7 -60 11 -30 4 -63 8
-73 10 -11 2 -43 0 -71 -5 -117 -20 -174 -30 -212 -35 -22 -3 -67 -12 -100
-20 -33 -7 -80 -16 -105 -19 -45 -6 -94 -13 -140 -22 -14 -3 -43 -7 -65 -10
-22 -3 -50 -11 -62 -17 -25 -13 -165 -108 -173 -116 -3 -3 -39 -28 -80 -55
-41 -27 -76 -53 -78 -58 -2 -4 -10 -8 -17 -8 -7 0 -15 -4 -17 -8 -1 -5 -35
-32 -74 -59 l-70 -50 -50 39 c-27 21 -56 45 -64 52 -20 16 -116 90 -155 119
-16 12 -52 40 -80 62 -91 74 -160 122 -185 130 -14 4 -29 11 -35 15 -5 4 -23
10 -40 14 -16 4 -48 16 -72 27 -23 10 -45 19 -48 19 -4 0 -21 6 -38 14 -74 34
-181 76 -201 80 -11 2 -39 12 -61 22 -22 10 -43 18 -47 18 -3 1 -10 4 -14 8
-4 4 -13 3 -21 -3 -7 -6 -13 -8 -13 -4 0 5 -8 1 -17 -7 -10 -9 -45 -30 -78
-48 -33 -18 -82 -47 -110 -65 -27 -18 -94 -58 -147 -89 -53 -30 -99 -64 -102
-73 -2 -10 -8 -56 -11 -103 -4 -47 -8 -96 -10 -110 -2 -14 -7 -78 -10 -142 -3
-65 -8 -126 -10 -135 -1 -10 -6 -80 -10 -154 l-7 -136 63 -49 c35 -26 65 -52
67 -56 2 -4 8 -8 14 -8 5 0 15 -6 22 -12 7 -7 66 -53 132 -101 l119 -89 2 -66
c9 -254 13 -285 33 -307 11 -12 20 -27 20 -33 0 -7 4 -12 8 -12 4 0 17 -14 27
-32 11 -17 30 -48 42 -67 12 -20 27 -43 32 -51 7 -11 -5 -34 -43 -86 -28 -39
-71 -100 -96 -134 -43 -61 -86 -98 -212 -186 -32 -23 -70 -51 -83 -63 -14 -11
-28 -21 -31 -21 -5 0 -73 -49 -84 -60 -3 -3 -37 -29 -76 -58 -73 -53 -104 -82
-88 -82 5 0 32 -20 59 -45 28 -24 53 -45 56 -45 12 0 17 -38 6 -49 -6 -6 -8
-11 -4 -11 3 0 2 -12 -4 -27 -6 -16 -13 -39 -15 -53 -3 -14 -12 -52 -21 -85
-8 -33 -17 -67 -18 -75 -2 -8 -4 -15 -5 -15 -1 0 -3 -7 -5 -15 -31 -123 -97
-369 -102 -380 -3 -8 -8 -24 -10 -35 -8 -37 -11 -50 -13 -52 -2 -2 -3 -6 -4
-10 -1 -5 -5 -17 -9 -28 -3 -11 -8 -31 -11 -45 -14 -70 -18 -87 -37 -144 -11
-33 -23 -68 -26 -76 -3 -8 -7 -19 -8 -25 -2 -5 -8 -30 -15 -55 -7 -25 -14 -56
-16 -70 -3 -14 -7 -31 -9 -37 -3 -9 6 -13 25 -14 17 -1 39 -3 50 -4 11 -1 26
-3 34 -4 7 0 16 -9 19 -19 3 -9 19 -62 36 -116 l30 -99 -74 -81 c-41 -45 -106
-112 -145 -151 -38 -38 -70 -74 -70 -80 0 -5 42 -27 93 -49 110 -46 140 -64
132 -76 -4 -6 -3 -16 2 -23 4 -6 8 -21 9 -32 1 -11 5 -60 8 -110 8 -109 12
-147 21 -203 7 -51 12 -93 20 -187 9 -106 16 -159 21 -164 2 -3 47 -4 98 -4
58 1 101 -3 110 -10 12 -9 17 -44 23 -152 4 -77 7 -152 8 -167 0 -16 5 -28 10
-28 15 1 114 36 122 44 3 3 13 6 20 6 8 0 39 11 69 25 30 14 58 25 62 25 4 0
42 13 85 29 l79 30 -5 -47 c-3 -26 -8 -55 -12 -64 -12 -31 16 -21 129 47 59
36 110 65 112 65 2 0 26 14 52 30 27 17 52 30 55 30 4 0 4 -42 1 -92 -16 -276
-15 -315 4 -320 19 -5 451 -1 664 6 65 3 120 1 123 -4 3 -4 7 -34 10 -67 3
-32 7 -73 10 -90 3 -18 7 -47 10 -64 2 -17 7 -40 10 -50 6 -19 7 -19 31 0 14
11 39 23 57 26 18 4 37 11 43 16 7 5 51 23 98 39 l87 29 17 -20 c9 -12 24 -29
33 -39 8 -10 24 -31 35 -45 43 -61 120 -161 132 -173 6 -7 12 -17 12 -20 0 -4
11 -20 25 -35 28 -30 15 -32 129 18 34 14 34 14 49 -18 8 -18 36 -77 62 -132
26 -55 56 -119 66 -142 10 -24 23 -43 28 -43 6 0 29 33 52 73 70 120 61 116
108 55 58 -74 103 -128 126 -155 23 -26 34 -21 80 42 17 22 35 45 40 51 6 6
28 34 50 62 43 57 50 61 59 35 3 -10 19 -40 35 -68 17 -27 35 -60 40 -73 20
-44 36 -25 90 103 19 44 49 113 67 153 37 81 36 81 116 41 21 -11 44 -19 51
-19 8 0 43 39 78 88 35 48 94 128 131 179 l68 92 140 -48 c76 -26 146 -54 155
-61 30 -25 32 -16 50 175 8 81 15 105 33 106 9 0 53 -1 97 -2 44 -1 211 -2
370 -3 269 -1 291 0 307 17 9 10 15 28 13 40 -4 20 -7 68 -21 279 -3 43 -2 78
2 78 9 0 152 -78 186 -102 14 -10 33 -18 41 -18 9 0 17 -4 19 -8 2 -4 24 -20
50 -34 49 -27 67 -23 49 10 -6 11 -8 21 -6 24 3 2 0 19 -5 37 -9 33 -9 33 21
27 17 -3 45 -12 62 -19 18 -8 55 -22 82 -31 28 -10 93 -33 145 -51 143 -51
133 -54 137 45 2 47 5 123 6 170 1 47 6 88 10 91 8 6 114 12 189 12 34 -1 36
11 53 242 2 28 6 68 9 90 3 22 8 74 11 115 3 41 7 91 10 110 2 19 7 67 10 105
3 39 11 75 18 81 7 6 56 30 110 54 54 24 100 46 102 50 3 4 -63 76 -146 161
-82 84 -148 158 -146 163 3 6 19 59 37 119 31 99 35 107 59 108 30 1 70 7 89
14 9 3 10 10 4 22 -8 16 -27 86 -37 134 -2 8 -15 51 -29 95 -38 114 -43 130
-66 219 -11 44 -23 87 -27 95 -3 8 -7 22 -9 30 -1 8 -7 31 -13 50 -6 19 -29
100 -51 180 -49 178 -67 242 -85 300 -7 25 -19 69 -26 97 l-13 53 39 32 c21
18 46 41 54 51 9 9 22 17 29 17 27 0 4 26 -69 78 -41 29 -82 59 -92 67 -9 8
-22 15 -27 15 -6 0 -10 4 -10 8 0 5 -16 17 -35 28 -19 10 -35 22 -35 26 0 3
-8 9 -18 12 -10 4 -27 14 -38 24 -10 10 -55 42 -99 72 -100 69 -86 54 -190
195 -49 66 -93 123 -99 126 -15 11 -2 40 68 146 37 56 69 116 71 133 4 29 15
211 19 293 1 31 8 43 36 65 19 15 37 30 38 34 2 5 10 8 17 8 7 0 15 4 17 8 2
4 69 58 151 120 81 62 148 118 148 125 3 23 -6 157 -16 252 -6 50 -13 138 -19
230 -3 39 -8 104 -12 145 -3 41 -7 89 -8 105 -1 17 -7 37 -12 46 -5 8 -109 72
-230 142 -243 139 -251 142 -339 106z"/>
</g>
</svg>
