<svg width="207" height="328" viewBox="0 0 207 328" fill="none" xmlns="http://www.w3.org/2000/svg">
<rect x="0.937317" y="327.665" width="308" height="206" rx="39" transform="rotate(-90 0.937317 327.665)" fill="#61C6FF"/>
<path d="M96.0689 1.63354C99.7585 -0.233033 104.116 -0.233029 107.806 1.63355L140.779 18.3147C152.99 24.4922 148.596 42.9147 134.911 42.9147H68.9639C55.2792 42.9147 50.8844 24.4922 63.0955 18.3147L96.0689 1.63354Z" fill="#61C6FF"/>
<rect x="16.0052" y="310.587" width="274.84" height="174.25" rx="39" transform="rotate(-90 16.0052 310.587)" fill="#E3F7FF"/>
<circle cx="101.651" cy="10.9282" r="4.65769" transform="rotate(-90 101.651 10.9282)" fill="white"/>
<path d="M43.7103 66.706C43.7463 67.09 43.8843 67.456 44.1243 67.804C44.3763 68.14 44.7123 68.416 45.1323 68.632C45.5523 68.836 46.0383 68.938 46.5903 68.938C47.4423 68.938 48.1383 68.746 48.6783 68.362C49.2303 67.966 49.5063 67.396 49.5063 66.652C49.5063 66.124 49.3623 65.686 49.0743 65.338C48.7863 64.978 48.4323 64.696 48.0123 64.492C47.5923 64.276 47.0163 64.03 46.2843 63.754C45.5043 63.466 44.8743 63.202 44.3943 62.962C43.9143 62.71 43.5063 62.374 43.1703 61.954C42.8463 61.522 42.6843 60.976 42.6843 60.316C42.6843 59.788 42.8343 59.29 43.1343 58.822C43.4343 58.342 43.8843 57.958 44.4843 57.67C45.0963 57.37 45.8463 57.22 46.7343 57.22C47.3223 57.22 47.8083 57.262 48.1923 57.346C48.5763 57.43 48.9663 57.568 49.3623 57.76L48.9663 58.984C48.2223 58.66 47.4903 58.498 46.7703 58.498C45.9183 58.498 45.2463 58.672 44.7543 59.02C44.2743 59.356 44.0403 59.818 44.0523 60.406C44.0523 60.766 44.1783 61.078 44.4303 61.342C44.6823 61.594 44.9943 61.81 45.3663 61.99C45.7383 62.17 46.2423 62.374 46.8783 62.602C47.7303 62.914 48.4263 63.214 48.9663 63.502C49.5063 63.778 49.9623 64.168 50.3343 64.672C50.7183 65.164 50.9103 65.782 50.9103 66.526C50.9103 67.63 50.5563 68.518 49.8483 69.19C49.1523 69.862 48.0723 70.198 46.6083 70.198C45.7203 70.198 44.9583 70.036 44.3223 69.712C43.6983 69.376 43.2183 68.95 42.8823 68.434C42.5583 67.906 42.3843 67.36 42.3603 66.796L43.7103 66.706ZM54.7362 70.234C53.9682 70.09 53.4162 69.802 53.0802 69.37C52.7442 68.938 52.5762 68.356 52.5762 67.624V57.4H53.8902V60.982H55.9062L55.4742 62.206H53.8902V67.624C53.8902 68.476 54.2982 69.01 55.1142 69.226L54.7362 70.234ZM57.4173 60.982H58.6773V61.45C59.2413 61.03 59.9073 60.82 60.6753 60.82C61.0593 60.82 61.5273 60.88 62.0793 61L61.7553 62.224C61.3953 62.092 61.0173 62.026 60.6213 62.026C60.0933 62.026 59.6433 62.14 59.2713 62.368C58.8993 62.584 58.7133 62.902 58.7133 63.322V70H57.4173V60.982ZM64.2274 58.696C64.0234 58.696 63.8434 58.624 63.6874 58.48C63.5434 58.324 63.4714 58.15 63.4714 57.958C63.4714 57.766 63.5434 57.598 63.6874 57.454C63.8434 57.298 64.0234 57.22 64.2274 57.22C64.4194 57.22 64.5874 57.292 64.7314 57.436C64.8754 57.58 64.9474 57.754 64.9474 57.958C64.9474 58.162 64.8754 58.336 64.7314 58.48C64.5874 58.624 64.4194 58.696 64.2274 58.696ZM63.5434 60.982H64.8394V70H63.5434V60.982ZM72.8896 63.97C72.8896 63.322 72.6916 62.842 72.2956 62.53C71.9116 62.206 71.4196 62.044 70.8196 62.044C70.4836 62.044 70.1416 62.092 69.7936 62.188C69.4456 62.272 69.1276 62.398 68.8396 62.566V70H67.5436V60.982H68.7676L68.7856 61.45C69.0616 61.258 69.3916 61.108 69.7756 61C70.1716 60.892 70.5856 60.838 71.0176 60.838C71.6416 60.838 72.1876 60.946 72.6556 61.162C73.1356 61.378 73.5076 61.702 73.7716 62.134C74.0476 62.566 74.1856 63.112 74.1856 63.772V70H72.8896V63.97ZM80.3236 72.772C81.1396 72.544 81.5476 71.968 81.5476 71.044V69.19C81.1396 69.874 80.4256 70.216 79.4056 70.216C78.3496 70.216 77.5276 69.928 76.9396 69.352C76.3516 68.776 76.0576 67.936 76.0576 66.832V64.15C76.0576 63.094 76.3636 62.278 76.9756 61.702C77.5996 61.114 78.4336 60.82 79.4776 60.82C79.9576 60.82 80.3776 60.904 80.7376 61.072C81.1096 61.228 81.3976 61.462 81.6016 61.774L81.6556 60.982H82.8436V71.152C82.8436 71.908 82.6696 72.496 82.3216 72.916C81.9856 73.336 81.4276 73.624 80.6476 73.78L80.3236 72.772ZM81.5476 64.06C81.5476 63.4 81.3436 62.902 80.9356 62.566C80.5396 62.218 80.0296 62.044 79.4056 62.044C78.8176 62.044 78.3256 62.23 77.9296 62.602C77.5456 62.962 77.3536 63.508 77.3536 64.24V66.868C77.3536 67.552 77.5336 68.08 77.8936 68.452C78.2536 68.812 78.7576 68.992 79.4056 68.992C80.0536 68.992 80.5696 68.788 80.9536 68.38C81.3496 67.96 81.5476 67.36 81.5476 66.58V64.06ZM84.864 55.294H87.762V56.428L86.16 56.608V70.738L87.762 70.918V72.052H84.864V55.294ZM90.612 70.918L92.214 70.738V56.608L90.612 56.428V55.294H93.51V72.052H90.612V70.918ZM104.898 72.772C105.714 72.544 106.122 71.968 106.122 71.044V69.19C105.714 69.874 105 70.216 103.98 70.216C102.924 70.216 102.102 69.928 101.514 69.352C100.926 68.776 100.632 67.936 100.632 66.832V64.15C100.632 63.094 100.938 62.278 101.55 61.702C102.174 61.114 103.008 60.82 104.052 60.82C104.532 60.82 104.952 60.904 105.312 61.072C105.684 61.228 105.972 61.462 106.176 61.774L106.23 60.982H107.418V71.152C107.418 71.908 107.244 72.496 106.896 72.916C106.56 73.336 106.002 73.624 105.222 73.78L104.898 72.772ZM106.122 64.06C106.122 63.4 105.918 62.902 105.51 62.566C105.114 62.218 104.604 62.044 103.98 62.044C103.392 62.044 102.9 62.23 102.504 62.602C102.12 62.962 101.928 63.508 101.928 64.24V66.868C101.928 67.552 102.108 68.08 102.468 68.452C102.828 68.812 103.332 68.992 103.98 68.992C104.628 68.992 105.144 68.788 105.528 68.38C105.924 67.96 106.122 67.36 106.122 66.58V64.06ZM114.154 69.334C113.902 69.61 113.59 69.826 113.218 69.982C112.846 70.126 112.462 70.198 112.066 70.198C109.81 70.198 108.682 69.1 108.682 66.904V60.982H109.978V66.904C109.978 67.6 110.158 68.122 110.518 68.47C110.878 68.806 111.394 68.974 112.066 68.974C113.422 68.974 114.1 68.278 114.1 66.886V60.982H115.396V70H114.154V69.334ZM122.745 69.37C122.313 69.646 121.821 69.856 121.269 70C120.717 70.144 120.165 70.216 119.613 70.216C118.725 70.216 118.017 70 117.489 69.568C116.973 69.124 116.715 68.464 116.715 67.588V63.898C116.715 62.926 117.015 62.17 117.615 61.63C118.227 61.09 119.031 60.82 120.027 60.82C121.023 60.82 121.797 61.09 122.349 61.63C122.913 62.158 123.195 62.896 123.195 63.844V66.31L118.011 66.58V67.516C118.011 68.02 118.167 68.398 118.479 68.65C118.791 68.902 119.217 69.028 119.757 69.028C120.537 69.028 121.371 68.788 122.259 68.308L122.745 69.37ZM121.881 63.772C121.881 63.136 121.683 62.686 121.287 62.422C120.891 62.146 120.465 62.008 120.009 62.008C119.409 62.008 118.923 62.17 118.551 62.494C118.191 62.818 118.011 63.292 118.011 63.916V65.356L121.881 65.158V63.772ZM125.798 67.66C125.846 68.104 126.068 68.452 126.464 68.704C126.86 68.944 127.328 69.064 127.868 69.064C128.36 69.064 128.792 68.95 129.164 68.722C129.548 68.482 129.74 68.128 129.74 67.66C129.74 67.336 129.644 67.066 129.452 66.85C129.272 66.634 129.038 66.466 128.75 66.346C128.474 66.214 128.09 66.064 127.598 65.896C127.01 65.692 126.536 65.512 126.176 65.356C125.828 65.188 125.516 64.948 125.24 64.636C124.976 64.324 124.814 63.922 124.754 63.43L124.736 63.214C124.736 62.818 124.844 62.434 125.06 62.062C125.288 61.678 125.63 61.366 126.086 61.126C126.554 60.886 127.136 60.766 127.832 60.766C128.216 60.766 128.552 60.808 128.84 60.892C129.14 60.964 129.374 61.042 129.542 61.126C129.71 61.21 129.812 61.264 129.848 61.288L129.434 62.422C129.398 62.398 129.314 62.35 129.182 62.278C129.062 62.206 128.882 62.14 128.642 62.08C128.402 62.008 128.132 61.972 127.832 61.972C127.268 61.972 126.824 62.098 126.5 62.35C126.176 62.602 126.038 62.944 126.086 63.376C126.122 63.7 126.296 63.958 126.608 64.15C126.932 64.33 127.418 64.534 128.066 64.762C128.702 64.978 129.218 65.188 129.614 65.392C130.022 65.584 130.364 65.866 130.64 66.238C130.928 66.598 131.072 67.072 131.072 67.66C131.072 68.404 130.802 69.028 130.262 69.532C129.722 70.024 128.924 70.27 127.868 70.27C127.184 70.27 126.59 70.156 126.086 69.928C125.594 69.688 125.216 69.376 124.952 68.992C124.7 68.608 124.562 68.182 124.538 67.714L125.798 67.66ZM134.594 70.234C133.826 70.09 133.274 69.802 132.938 69.37C132.602 68.938 132.434 68.356 132.434 67.624V57.4H133.748V60.982H135.764L135.332 62.206H133.748V67.624C133.748 68.476 134.156 69.01 134.972 69.226L134.594 70.234ZM138.085 67.66C138.133 68.104 138.355 68.452 138.751 68.704C139.147 68.944 139.615 69.064 140.155 69.064C140.647 69.064 141.079 68.95 141.451 68.722C141.835 68.482 142.027 68.128 142.027 67.66C142.027 67.336 141.931 67.066 141.739 66.85C141.559 66.634 141.325 66.466 141.037 66.346C140.761 66.214 140.377 66.064 139.885 65.896C139.297 65.692 138.823 65.512 138.463 65.356C138.115 65.188 137.803 64.948 137.527 64.636C137.263 64.324 137.101 63.922 137.041 63.43L137.023 63.214C137.023 62.818 137.131 62.434 137.347 62.062C137.575 61.678 137.917 61.366 138.373 61.126C138.841 60.886 139.423 60.766 140.119 60.766C140.503 60.766 140.839 60.808 141.127 60.892C141.427 60.964 141.661 61.042 141.829 61.126C141.997 61.21 142.099 61.264 142.135 61.288L141.721 62.422C141.685 62.398 141.601 62.35 141.469 62.278C141.349 62.206 141.169 62.14 140.929 62.08C140.689 62.008 140.419 61.972 140.119 61.972C139.555 61.972 139.111 62.098 138.787 62.35C138.463 62.602 138.325 62.944 138.373 63.376C138.409 63.7 138.583 63.958 138.895 64.15C139.219 64.33 139.705 64.534 140.353 64.762C140.989 64.978 141.505 65.188 141.901 65.392C142.309 65.584 142.651 65.866 142.927 66.238C143.215 66.598 143.359 67.072 143.359 67.66C143.359 68.404 143.089 69.028 142.549 69.532C142.009 70.024 141.211 70.27 140.155 70.27C139.471 70.27 138.877 70.156 138.373 69.928C137.881 69.688 137.503 69.376 137.239 68.992C136.987 68.608 136.849 68.182 136.825 67.714L138.085 67.66ZM149.316 62.296H155.076V63.556H149.316V62.296ZM149.316 64.456H155.076V65.716H149.316V64.456ZM165.276 72.088C164.7 71.812 164.268 71.518 163.98 71.206C163.692 70.894 163.488 70.468 163.368 69.928C163.248 69.376 163.188 68.596 163.188 67.588V65.554C163.188 65.23 163.062 64.918 162.81 64.618C162.558 64.306 162.24 63.976 161.856 63.628C162.144 63.4 162.432 63.1 162.72 62.728C163.008 62.356 163.152 62.008 163.152 61.684V59.794C163.152 58.786 163.212 58 163.332 57.436C163.452 56.86 163.656 56.41 163.944 56.086C164.244 55.75 164.682 55.456 165.258 55.204L165.636 56.176C164.844 56.596 164.448 57.388 164.448 58.552V61.792C164.448 62.104 164.334 62.422 164.106 62.746C163.89 63.07 163.656 63.358 163.404 63.61C164.124 64.33 164.484 64.942 164.484 65.446V68.704C164.484 69.364 164.586 69.88 164.79 70.252C165.006 70.624 165.3 70.9 165.672 71.08L165.276 72.088ZM72.7391 116.772C73.5431 116.532 73.9451 115.974 73.9451 115.098V113.37C73.7291 113.658 73.4291 113.868 73.0451 114C72.6611 114.144 72.2291 114.216 71.7491 114.216C70.6931 114.216 69.8771 113.934 69.3011 113.37C68.7371 112.794 68.4551 111.948 68.4551 110.832V104.982H69.7331V110.796C69.7331 112.248 70.4051 112.974 71.7491 112.974C73.2011 112.974 73.9271 112.248 73.9271 110.796V107.466C73.9271 106.758 74.0351 106.182 74.2511 105.738C74.4791 105.282 74.9111 104.976 75.5471 104.82L75.9611 105.792C75.7091 105.876 75.5171 106.032 75.3851 106.26C75.2651 106.488 75.2051 106.758 75.2051 107.07V115.098C75.2051 115.842 75.0431 116.43 74.7191 116.862C74.4071 117.294 73.8851 117.6 73.1531 117.78L72.7391 116.772ZM84.2567 110.688C84.2567 111.696 83.9807 112.53 83.4287 113.19C82.8767 113.85 82.0427 114.18 80.9267 114.18C79.8107 114.18 78.9647 113.85 78.3887 113.19C77.8247 112.518 77.5427 111.684 77.5427 110.688V108.312C77.5427 107.172 77.8307 106.302 78.4067 105.702C78.9947 105.09 79.8347 104.784 80.9267 104.784C81.9707 104.784 82.7867 105.102 83.3747 105.738C83.9627 106.362 84.2567 107.22 84.2567 108.312V110.688ZM82.9607 108.312C82.9607 106.788 82.2827 106.026 80.9267 106.026C80.2907 106.026 79.7807 106.206 79.3967 106.566C79.0247 106.926 78.8387 107.508 78.8387 108.312V110.868C78.8387 111.516 79.0247 112.032 79.3967 112.416C79.7807 112.788 80.2907 112.974 80.9267 112.974C81.5627 112.974 82.0607 112.788 82.4207 112.416C82.7807 112.032 82.9607 111.516 82.9607 110.868V108.312ZM91.0126 113.334C90.7606 113.61 90.4486 113.826 90.0766 113.982C89.7046 114.126 89.3206 114.198 88.9246 114.198C86.6686 114.198 85.5406 113.1 85.5406 110.904V104.982H86.8366V110.904C86.8366 111.6 87.0166 112.122 87.3766 112.47C87.7366 112.806 88.2526 112.974 88.9246 112.974C90.2806 112.974 90.9586 112.278 90.9586 110.886V104.982H92.2546V114H91.0126V113.334ZM94.0414 104.982H95.3014V105.45C95.8654 105.03 96.5314 104.82 97.2994 104.82C97.6834 104.82 98.1514 104.88 98.7034 105L98.3794 106.224C98.0194 106.092 97.6414 106.026 97.2454 106.026C96.7174 106.026 96.2674 106.14 95.8954 106.368C95.5234 106.584 95.3374 106.902 95.3374 107.322V114H94.0414V104.982ZM101.884 103.92V114H100.588V101.4H101.884L108.13 111.462V101.4H109.444V114H108.13L101.884 103.92ZM118.487 114C117.191 114.132 116.255 114.198 115.679 114.198C114.419 114.198 113.417 113.964 112.673 113.496C111.929 113.028 111.557 112.182 111.557 110.958V109.464C111.557 108.276 111.971 107.478 112.799 107.07C113.195 106.878 113.681 106.782 114.257 106.782C114.785 106.782 115.319 106.866 115.859 107.034C116.399 107.19 116.843 107.394 117.191 107.646C117.191 106.41 116.345 105.792 114.653 105.792L114.743 104.838C115.895 104.838 116.741 105.024 117.281 105.396C117.833 105.756 118.169 106.188 118.289 106.692C118.421 107.196 118.487 107.844 118.487 108.636V114ZM117.191 108.816C116.771 108.612 116.309 108.432 115.805 108.276C115.301 108.108 114.839 108.024 114.419 108.024C113.375 108.024 112.853 108.54 112.853 109.572V110.976C112.853 112.344 113.789 113.028 115.661 113.028C116.033 113.028 116.543 112.986 117.191 112.902V108.816ZM130.475 108.042C130.475 107.346 130.313 106.836 129.989 106.512C129.677 106.188 129.251 106.026 128.711 106.026C128.291 106.026 127.823 106.122 127.307 106.314L126.749 106.584C126.905 106.92 126.983 107.298 126.983 107.718V114H125.687V108.06C125.687 107.364 125.507 106.854 125.147 106.53C124.799 106.206 124.343 106.044 123.779 106.044C123.143 106.044 122.495 106.224 121.835 106.584V114H120.539V104.982H121.763L121.781 105.432C122.477 105.048 123.185 104.856 123.905 104.856C124.793 104.856 125.513 105.138 126.065 105.702C126.233 105.606 126.485 105.474 126.821 105.306C127.529 104.982 128.213 104.82 128.873 104.82C129.725 104.82 130.421 105.084 130.961 105.612C131.501 106.128 131.771 106.848 131.771 107.772V114H130.475V108.042ZM139.066 113.37C138.634 113.646 138.142 113.856 137.59 114C137.038 114.144 136.486 114.216 135.934 114.216C135.046 114.216 134.338 114 133.81 113.568C133.294 113.124 133.036 112.464 133.036 111.588V107.898C133.036 106.926 133.336 106.17 133.936 105.63C134.548 105.09 135.352 104.82 136.348 104.82C137.344 104.82 138.118 105.09 138.67 105.63C139.234 106.158 139.516 106.896 139.516 107.844V110.31L134.332 110.58V111.516C134.332 112.02 134.488 112.398 134.8 112.65C135.112 112.902 135.538 113.028 136.078 113.028C136.858 113.028 137.692 112.788 138.58 112.308L139.066 113.37ZM138.202 107.772C138.202 107.136 138.004 106.686 137.608 106.422C137.212 106.146 136.786 106.008 136.33 106.008C135.73 106.008 135.244 106.17 134.872 106.494C134.512 106.818 134.332 107.292 134.332 107.916V109.356L138.202 109.158V107.772ZM44.0454 158H49.8054V159.098H44.0454V158ZM50.3384 158H56.0984V159.098H50.3384V158ZM56.6314 158H62.3914V159.098H56.6314V158ZM62.9244 158H68.6844V159.098H62.9244V158ZM69.2173 158H74.9773V159.098H69.2173V158ZM75.5103 158H81.2703V159.098H75.5103V158ZM81.8033 158H87.5633V159.098H81.8033V158ZM88.0962 158H93.8562V159.098H88.0962V158ZM94.3892 158H100.149V159.098H94.3892V158ZM100.682 158H106.442V159.098H100.682V158ZM106.975 158H112.735V159.098H106.975V158ZM113.268 158H119.028V159.098H113.268V158ZM119.561 158H125.321V159.098H119.561V158ZM125.854 158H131.614V159.098H125.854V158ZM132.147 158H137.907V159.098H132.147V158ZM138.44 158H144.2V159.098H138.44V158ZM144.733 158H150.493V159.098H144.733V158ZM151.026 158H156.786V159.098H151.026V158ZM157.319 158H163.079V159.098H157.319V158ZM162.442 159.008C162.694 158.864 162.91 158.72 163.09 158.576C163.27 158.432 163.402 158.312 163.486 158.216C163.57 158.132 163.618 158.078 163.63 158.054L163.432 158C163.276 157.904 163.168 157.79 163.108 157.658C163.06 157.514 163.036 157.388 163.036 157.28C163.048 157.088 163.126 156.932 163.27 156.812C163.414 156.68 163.588 156.62 163.792 156.632C163.984 156.644 164.146 156.734 164.278 156.902C164.422 157.07 164.494 157.244 164.494 157.424C164.494 158.144 164.104 158.84 163.324 159.512L162.442 159.008ZM44.0454 202H49.8054V203.098H44.0454V202ZM50.3384 202H56.0984V203.098H50.3384V202ZM56.6314 202H62.3914V203.098H56.6314V202ZM62.9244 202H68.6844V203.098H62.9244V202ZM69.2173 202H74.9773V203.098H69.2173V202ZM75.5103 202H81.2703V203.098H75.5103V202ZM81.8033 202H87.5633V203.098H81.8033V202ZM88.0962 202H93.8562V203.098H88.0962V202ZM94.3892 202H100.149V203.098H94.3892V202ZM100.682 202H106.442V203.098H100.682V202ZM106.975 202H112.735V203.098H106.975V202ZM113.268 202H119.028V203.098H113.268V202ZM119.561 202H125.321V203.098H119.561V202ZM125.854 202H131.614V203.098H125.854V202ZM132.147 202H137.907V203.098H132.147V202ZM138.44 202H144.2V203.098H138.44V202ZM144.733 202H150.493V203.098H144.733V202ZM151.026 202H156.786V203.098H151.026V202ZM157.319 202H163.079V203.098H157.319V202ZM162.442 203.008C162.694 202.864 162.91 202.72 163.09 202.576C163.27 202.432 163.402 202.312 163.486 202.216C163.57 202.132 163.618 202.078 163.63 202.054L163.432 202C163.276 201.904 163.168 201.79 163.108 201.658C163.06 201.514 163.036 201.388 163.036 201.28C163.048 201.088 163.126 200.932 163.27 200.812C163.414 200.68 163.588 200.62 163.792 200.632C163.984 200.644 164.146 200.734 164.278 200.902C164.422 201.07 164.494 201.244 164.494 201.424C164.494 202.144 164.104 202.84 163.324 203.512L162.442 203.008ZM44.0454 246H49.8054V247.098H44.0454V246ZM50.3384 246H56.0984V247.098H50.3384V246ZM56.6314 246H62.3914V247.098H56.6314V246ZM62.9244 246H68.6844V247.098H62.9244V246ZM69.2173 246H74.9773V247.098H69.2173V246ZM75.5103 246H81.2703V247.098H75.5103V246ZM81.8033 246H87.5633V247.098H81.8033V246ZM88.0962 246H93.8562V247.098H88.0962V246ZM94.3892 246H100.149V247.098H94.3892V246ZM100.682 246H106.442V247.098H100.682V246ZM106.975 246H112.735V247.098H106.975V246ZM113.268 246H119.028V247.098H113.268V246ZM119.561 246H125.321V247.098H119.561V246ZM125.854 246H131.614V247.098H125.854V246ZM132.147 246H137.907V247.098H132.147V246ZM138.44 246H144.2V247.098H138.44V246ZM144.733 246H150.493V247.098H144.733V246ZM151.026 246H156.786V247.098H151.026V246ZM157.319 246H163.079V247.098H157.319V246ZM162.442 247.008C162.694 246.864 162.91 246.72 163.09 246.576C163.27 246.432 163.402 246.312 163.486 246.216C163.57 246.132 163.618 246.078 163.63 246.054L163.432 246C163.276 245.904 163.168 245.79 163.108 245.658C163.06 245.514 163.036 245.388 163.036 245.28C163.048 245.088 163.126 244.932 163.27 244.812C163.414 244.68 163.588 244.62 163.792 244.632C163.984 244.644 164.146 244.734 164.278 244.902C164.422 245.07 164.494 245.244 164.494 245.424C164.494 246.144 164.104 246.84 163.324 247.512L162.442 247.008ZM42.604 290H48.364V291.098H42.604V290ZM48.897 290H54.657V291.098H48.897V290ZM55.19 290H60.95V291.098H55.19V290ZM61.4829 290H67.2429V291.098H61.4829V290ZM67.7759 290H73.5359V291.098H67.7759V290ZM74.0689 290H79.8289V291.098H74.0689V290ZM80.3619 290H86.1219V291.098H80.3619V290ZM86.6548 290H92.4148V291.098H86.6548V290ZM92.9478 290H98.7078V291.098H92.9478V290ZM99.2408 290H105.001V291.098H99.2408V290ZM105.534 290H111.294V291.098H105.534V290ZM111.827 290H117.587V291.098H111.827V290ZM118.12 290H123.88V291.098H118.12V290ZM124.413 290H130.173V291.098H124.413V290ZM130.706 290H136.466V291.098H130.706V290ZM136.999 290H142.759V291.098H136.999V290ZM143.292 290H149.052V291.098H143.292V290ZM149.585 290H155.345V291.098H149.585V290ZM155.877 290H161.637V291.098H155.877V290ZM162.26 291.08C162.632 290.9 162.92 290.624 163.124 290.252C163.34 289.88 163.448 289.364 163.448 288.704V285.446C163.448 284.942 163.808 284.33 164.528 283.61C164.276 283.358 164.036 283.07 163.808 282.746C163.592 282.422 163.484 282.104 163.484 281.792V278.552C163.484 277.388 163.088 276.596 162.296 276.176L162.674 275.204C163.25 275.456 163.682 275.75 163.97 276.086C164.27 276.41 164.48 276.86 164.6 277.436C164.72 278 164.78 278.786 164.78 279.794V281.684C164.78 282.008 164.924 282.356 165.212 282.728C165.5 283.1 165.788 283.4 166.076 283.628C165.692 283.976 165.374 284.306 165.122 284.618C164.87 284.918 164.744 285.23 164.744 285.554V287.588C164.744 288.596 164.684 289.376 164.564 289.928C164.444 290.468 164.24 290.894 163.952 291.206C163.664 291.518 163.232 291.812 162.656 292.088L162.26 291.08Z" fill="black"/>
</svg>
